<?xml version="1.0" encoding="utf-8"?>
<!-- Generator: Adobe Illustrator 18.0.0, SVG Export Plug-In . SVG Version: 6.00 Build 0)  -->
<!DOCTYPE svg PUBLIC "-//W3C//DTD SVG 1.1//EN" "http://www.w3.org/Graphics/SVG/1.1/DTD/svg11.dtd">
<svg version="1.1" id="Livello_1" xmlns="http://www.w3.org/2000/svg" xmlns:xlink="http://www.w3.org/1999/xlink" x="0px" y="0px"
	 viewBox="0 0 556.773 313.043" enable-background="new 0 0 556.773 313.043" xml:space="preserve">
<symbol  id="p" viewBox="-12.38 -12.38 24.759 24.759">
	<path fill="none" stroke="#C0C3C9" stroke-miterlimit="10" d="M0,7.864c0.953,0,1.828-0.398,2.517-1.062
		C0.99,5.472-1,4.585-3.946,3.986C-3.578,6.197-1.951,7.864,0,7.864z"/>
	<path fill="none" stroke="#C0C3C9" stroke-miterlimit="10" d="M-4.024,3.035c0,0.325,0.027,0.643,0.078,0.951
		C-1,4.585,0.99,5.472,2.517,6.802c0.919-0.885,1.507-2.243,1.507-3.767c0-2.667-1.802-4.829-4.024-4.829
		C-2.222-1.794-4.024,0.368-4.024,3.035z"/>
	<path fill="none" stroke="#C0C3C9" stroke-miterlimit="10" d="M-7.745-8.839C-6.459-4.697-3.476-1.794,0-1.794
		c3.48,0,6.465-2.91,7.749-7.06"/>
	<path fill="none" stroke="#C0C3C9" stroke-miterlimit="10" d="M11.879-0.001c0-6.561-5.319-11.88-11.88-11.88
		s-11.88,5.319-11.88,11.88S-6.561,11.879,0,11.879S11.879,6.56,11.879-0.001z"/>
</symbol>
<path fill="none" stroke="#C0C3C9" stroke-width="2.0498" stroke-linecap="round" stroke-linejoin="round" d="M284.538,205.969
	v-50.409c0-18.168,14.728-32.897,32.897-32.897h43.061c18.168,0,32.897-14.728,32.897-32.897v-7.449"/>
<path fill="none" stroke="#C0C3C9" stroke-width="2.0498" stroke-linecap="round" stroke-linejoin="round" d="M299.458,205.969
	L299.458,205.969c0-25.037,20.297-45.334,45.334-45.334h130.264"/>
<path fill="none" stroke="#C0C3C9" stroke-width="2.0498" stroke-linecap="round" stroke-linejoin="round" d="M270.188,205.969
	v-50.409c0-18.168-14.728-32.897-32.897-32.897H194.23c-18.168,0-32.897-14.728-32.897-32.897v-7.449"/>
<path fill="none" stroke="#C0C3C9" stroke-width="2.0498" stroke-linecap="round" stroke-linejoin="round" d="M257.318,205.969
	c0-25.037-20.297-45.334-45.334-45.334H81.72"/>
<g id="XMLID_4_">
	
		<use xlink:href="#p"  width="24.759" height="24.759" x="-12.38" y="-12.38" transform="matrix(2.5124 0 0 -2.5124 394.3838 44.4567)" overflow="visible"/>
	<g>
		<path fill="none" stroke="#F79686" stroke-width="2.5124" d="M394.384,24.7c2.394,0,4.591,1,6.323,2.669
			c-3.835,3.341-8.835,5.568-16.236,7.074C385.396,28.887,389.482,24.7,394.384,24.7z"/>
		<path fill="none" stroke="#F79686" stroke-width="2.5124" d="M384.274,36.831c0-0.818,0.068-1.616,0.197-2.389
			c7.401-1.506,12.401-3.733,16.236-7.074c2.308,2.223,3.787,5.635,3.787,9.463c0,6.7-4.526,12.132-10.11,12.132
			C388.8,48.963,384.274,43.531,384.274,36.831z"/>
		<path fill="none" stroke="#F79686" stroke-width="2.5124" d="M374.926,66.664c3.231-10.408,10.725-17.702,19.458-17.702
			c8.743,0,16.243,7.31,19.469,17.737"/>
		<circle fill="none" stroke="#F79686" stroke-width="2.5124" cx="394.383" cy="44.458" r="29.846"/>
	</g>
</g>
<g id="XMLID_2_">
	
		<use xlink:href="#p"  width="24.759" height="24.759" x="-12.38" y="-12.38" transform="matrix(2.5124 0 0 -2.5124 513.0809 160.635)" overflow="visible"/>
	<g>
		<path fill="none" stroke="#E8BA58" stroke-width="2.5124" d="M513.08,140.878c2.394,0,4.591,1,6.323,2.669
			c-3.835,3.341-8.835,5.568-16.236,7.074C504.092,145.065,508.178,140.878,513.08,140.878z"/>
		<path fill="none" stroke="#E8BA58" stroke-width="2.5124" d="M502.971,153.009c0-0.818,0.068-1.616,0.197-2.389
			c7.401-1.506,12.401-3.733,16.236-7.074c2.308,2.223,3.787,5.635,3.787,9.463c0,6.7-4.526,12.132-10.11,12.132
			C507.497,165.141,502.971,159.71,502.971,153.009z"/>
		<path fill="none" stroke="#E8BA58" stroke-width="2.5124" d="M493.623,182.843c3.231-10.408,10.725-17.702,19.458-17.702
			c8.743,0,16.243,7.31,19.469,17.737"/>
		<circle fill="none" stroke="#E8BA58" stroke-width="2.5124" cx="513.079" cy="160.637" r="29.846"/>
	</g>
</g>
<g id="XMLID_3_">
	
		<use xlink:href="#p"  width="24.759" height="24.759" x="-12.38" y="-12.38" transform="matrix(2.5124 0 0 -2.5124 162.3924 44.4567)" overflow="visible"/>
	<g>
		<path fill="none" stroke="#65C994" stroke-width="2.5124" d="M162.393,24.7c2.394,0,4.591,1,6.323,2.669
			c-3.835,3.341-8.835,5.568-16.236,7.074C153.405,28.887,157.491,24.7,162.393,24.7z"/>
		<path fill="none" stroke="#65C994" stroke-width="2.5124" d="M152.283,36.831c0-0.818,0.068-1.616,0.197-2.389
			c7.401-1.506,12.401-3.733,16.236-7.074c2.308,2.223,3.787,5.635,3.787,9.463c0,6.7-4.526,12.132-10.11,12.132
			C156.81,48.963,152.283,43.531,152.283,36.831z"/>
		<path fill="none" stroke="#65C994" stroke-width="2.5124" d="M142.935,66.664c3.231-10.408,10.725-17.702,19.458-17.702
			c8.743,0,16.243,7.31,19.469,17.737"/>
		<circle fill="none" stroke="#65C994" stroke-width="2.5124" cx="162.392" cy="44.458" r="29.846"/>
	</g>
</g>
<g id="XMLID_1_">
	
		<use xlink:href="#p"  width="24.759" height="24.759" x="-12.38" y="-12.38" transform="matrix(2.5124 0 0 -2.5124 43.6952 160.635)" overflow="visible"/>
	<g>
		<path fill="none" stroke="#6EDBF4" stroke-width="2.5124" d="M43.694,140.878c2.394,0,4.591,1,6.323,2.669
			c-3.835,3.341-8.835,5.568-16.236,7.074C34.706,145.065,38.792,140.878,43.694,140.878z"/>
		<path fill="none" stroke="#6EDBF4" stroke-width="2.5124" d="M33.584,153.009c0-0.818,0.068-1.616,0.197-2.389
			c7.401-1.506,12.401-3.733,16.236-7.074c2.308,2.223,3.787,5.635,3.787,9.463c0,6.7-4.526,12.132-10.11,12.132
			C38.111,165.141,33.584,159.71,33.584,153.009z"/>
		<path fill="none" stroke="#6EDBF4" stroke-width="2.5124" d="M24.236,182.843c3.231-10.408,10.725-17.702,19.458-17.702
			c8.743,0,16.243,7.31,19.469,17.737"/>
		<circle fill="none" stroke="#6EDBF4" stroke-width="2.5124" cx="43.693" cy="160.637" r="29.846"/>
	</g>
</g>
<g>
	<path fill="none" stroke="#6837C6" stroke-width="3.7685" stroke-linecap="round" stroke-linejoin="round" d="M314.649,298.937
		h-72.524c-21.116,0-38.393-17.277-38.393-38.393v-0.605c0-21.116,17.277-38.393,38.393-38.393h72.524
		c21.116,0,38.393,17.277,38.393,38.393v0.605C353.042,281.66,335.765,298.937,314.649,298.937z"/>
	<path fill="none" stroke="#6837C6" stroke-width="3.7685" stroke-linecap="round" stroke-linejoin="round" d="M313.81,231.851
		c-7.561,0-14.671,2.947-20.023,8.3c-5.081,5.354-7.889,12.568-7.889,20.294c0,7.737,2.898,14.897,8.161,20.161
		c5.178,5.176,12.289,8.026,20.023,8.026c16.069,0,28.186-12.176,28.186-28.323C342.267,246.099,332.493,231.851,313.81,231.851z"/>
	<path fill="none" stroke="#6837C6" stroke-width="3.7685" stroke-linecap="round" stroke-linejoin="round" d="M242.989,231.851
		c-7.561,0-14.671,2.947-20.023,8.3c-5.081,5.354-7.889,12.568-7.889,20.294c0,7.737,2.898,14.897,8.161,20.161
		c5.178,5.176,12.289,8.026,20.023,8.026c16.069,0,28.186-12.176,28.186-28.323C271.446,246.099,261.671,231.851,242.989,231.851z"
		/>
</g>
<g>
</g>
<g>
</g>
<g>
</g>
</svg>
